<svg version="1.1" id="Layer_1" xmlns="http://www.w3.org/2000/svg" xmlns:xlink="http://www.w3.org/1999/xlink" x="0px" y="0px" viewBox="0 0 400 405" xml:space="preserve">
<style type="text/css">
	.st0{fill:#4DCDB3;}
	.st1{fill:#FF9067;}
	.st2{fill:#871472;}
	.st3{fill:#0099D3;}
	.st4{fill:#1665C1;}
	.st5{fill:rgb(22, 101, 193);}
</style>
<g>
	<path class="st0" d="M139.4,88.6c56-24,124.1-10.4,152.1,30.4c28.1,40.8,5.4,93.3-50.5,117.2s-124.1,10.4-152.1-30.4   S83.4,112.6,139.4,88.6z"/>
	<g>
		<path class="st1" d="M82.3,158.8c22-33.4,68.1-34.7,103-2.9s45.3,84.7,23.2,118.1s-68.1,34.7-103,2.9S60.2,192.2,82.3,158.8z"/>
	</g>
	<g>
		<path class="st2" d="M228.4,100.6c37.8-16.9,77.4,10,88.4,60s-10.7,104.2-48.5,121.1s-77.4-10-88.4-60S190.6,117.4,228.4,100.6z"/>
	</g>
	<g>
		<path class="st3" d="M156.8,188.1c40.1-33,99-39,131.6-13.3s26.5,73.3-13.5,106.3s-99,39-131.6,13.3S116.8,221.1,156.8,188.1z"/>
	</g>
	<g>
		<circle class="st4" cx="195.2" cy="191" r="115"/>
	</g>
	<g>
		<path class="st5" d="M191.8,237.3c-4.8,2.4-14.4,4.8-26.7,4.8c-28.5,0-49.9-18-49.9-51.1c0-31.6,21.4-53.1,52.8-53.1    c12.6,0,20.5,2.7,24,4.5l-3.1,10.6c-4.9-2.4-12-4.2-20.4-4.2c-23.7,0-39.4,15.1-39.4,41.7c0,24.7,14.2,40.6,38.8,40.6    c7.9,0,16-1.7,21.3-4.2L191.8,237.3z"/>
		<path class="st5" d="M275.7,237.3c-4.8,2.4-14.4,4.8-26.7,4.8c-28.5,0-49.9-18-49.9-51.1c0-31.6,21.4-53.1,52.8-53.1    c12.6,0,20.5,2.7,24,4.5l-3.2,10.6c-4.9-2.4-12-4.2-20.4-4.2c-23.7,0-39.4,15.1-39.4,41.7c0,24.7,14.2,40.6,38.8,40.6    c7.9,0,16-1.7,21.3-4.2L275.7,237.3z"/>
	</g>
</g>
</svg>