<svg xmlns="http://www.w3.org/2000/svg" xmlns:xlink="http://www.w3.org/1999/xlink" width="6.1in" height="1.7in" viewBox="0 0 440.4 121.2"><defs><radialGradient id="a" cx="281.98" cy="22.9" r="19.82" gradientUnits="userSpaceOnUse"><stop offset="0" stop-color="#fff"/><stop offset="0.07" stop-color="#f5f8f9"/><stop offset="0.71" stop-color="#a1bac9"/><stop offset="1" stop-color="#80a1b6"/></radialGradient><radialGradient id="b" cx="281.98" cy="22.9" r="19.82" xlink:href="#a"/><radialGradient id="c" cx="281.98" cy="22.9" r="19.82" xlink:href="#a"/><radialGradient id="d" cx="281.98" cy="22.9" r="19.82" xlink:href="#a"/></defs><path d="M0,113.9H.5c1.1-.2,1.2-.5,1.9-2.1L8.2,97.5l.7-1.7.8-.3L16,111.8c.4,1.1.7,1.8,1.4,1.9l1.1.2v.6h-7v-.6l1.3-.2c.5-.1.9-.2.9-.5a2.3,2.3,0,0,0-.2-.6l-2-5.3a16.6,16.6,0,0,0-3.1-.3l-2.9.3-1.4,3.9a9.2,9.2,0,0,0-.6,1.9c0,.5.4.6.7.6l1.7.2v.6H0Zm5.9-7.8h5.2L8.6,99.4Z" style="fill:#00447c"/><path d="M19.4,113.9h.7c1-.1,1.2-.3,1.2-2.1v-5.5c0-2.8,0-3.6-.8-3.6h-.4l-.6.2v-.7a23.3,23.3,0,0,1,4.3-1v1.9a5.8,5.8,0,0,1,4.2-1.9c2.4,0,3.4,1,3.7,1.8a6.8,6.8,0,0,1,4.3-1.8c4.6,0,4.6,3.1,4.6,5.9v4.6c0,1.7.2,1.9,1.3,2.1h.6v.6H36.2v-.6h.7c1-.1,1.2-.3,1.2-2.1v-3.9c0-2.6,0-5.2-3.1-5.2A3.9,3.9,0,0,0,32,104a26.9,26.9,0,0,1,.1,3.8v4c0,1.7.2,1.9,1.3,2.1h.6v.6H27.8v-.6h.7c1-.1,1.2-.3,1.2-2.1v-5.2c0-1.1,0-3.9-2.9-3.9a3.9,3.9,0,0,0-3,1.7v7.5c0,1.7.2,1.9,1.3,2.1h.6v.6H19.4Z" style="fill:#00447c"/><path d="M53.9,113.4A8.1,8.1,0,0,1,49,115a6.1,6.1,0,0,1-6.4-6.4c0-4.8,3.3-7.3,6.5-7.3s4.6,2.7,4.9,4.3a41.1,41.1,0,0,1-8.9,3,5.3,5.3,0,0,0,5.2,5.1,6.2,6.2,0,0,0,3.2-.9Zm-8.8-6.1a49.7,49.7,0,0,0,6.3-1.6c-.4-1.7-1.1-3.4-3.2-3.4S45.1,105.3,45.1,107.3Z" style="fill:#00447c"/><path d="M54.6,113.9h.7c1-.1,1.2-.1,1.2-2.1v-5.5c0-2.9,0-3.5-.8-3.5l-.7.2h-.3l-.2-.7a17.1,17.1,0,0,1,4.1-1,7.9,7.9,0,0,1,.2,1.8c.4-.5,1.6-1.8,3.1-1.8a4.4,4.4,0,0,1,2.1.8,5.2,5.2,0,0,1-1.4,1.6,13.9,13.9,0,0,0-2.3-.6,1.3,1.3,0,0,0-1.3,1.1v7.6c0,1.9.2,1.9,1.7,2.1h.6v.6H54.6Z" style="fill:#00447c"/><path d="M64.9,113.9h.7c1-.1,1.2-.2,1.2-2.1v-5.5c0-2.8,0-3.6-.8-3.6h-.4l-.6.2v-.7a23.4,23.4,0,0,1,4.3-1v10.5c0,1.9.2,1.9,1.3,2.1h.6v.6H64.9Zm1.3-17.4a1.6,1.6,0,1,1,3.1,0,1.6,1.6,0,1,1-3.1,0Z" style="fill:#00447c"/><path d="M82.1,113.8a7.6,7.6,0,0,1-4.4,1.2c-3.2,0-6.5-1.9-6.5-5.9s3.8-7.7,7.2-7.7a5.7,5.7,0,0,1,3.3.8,4.4,4.4,0,0,1-.7,2.1h-.2a3.9,3.9,0,0,0-3.3-1.6c-2,0-3.7,1.6-3.7,4.8s2.3,6.6,5.5,6.6a6,6,0,0,0,2.7-.9Z" style="fill:#00447c"/><path d="M94.6,114.3a3.3,3.3,0,0,1-2.1.7,2.1,2.1,0,0,1-2.2-1.2,6.6,6.6,0,0,1-4.1,1.2c-2.1,0-3.5-1.2-3.5-2.7,0-3.7,4.9-4.8,7.3-5.5v-.6c0-1.9-.5-3.5-2.6-3.5s-2.9,1.8-3.5,2.8h-.2a3.3,3.3,0,0,1-.7-1.1,7,7,0,0,1,5.6-3c3.2,0,3.9,1.7,3.9,4.6v4c0,2,0,4.1,1.5,4.1h.5Zm-5-6.2c-1.6,0-4.3.7-4.3,3.4a2.4,2.4,0,0,0,2.6,2.6,2.6,2.6,0,0,0,2.1-1.2v-4.8Z" style="fill:#00447c"/><path d="M95.2,113.9h.7c1-.1,1.2-.3,1.2-2.1v-5.5c0-2.8,0-3.6-.8-3.6h-.4l-.6.2v-.7a23.3,23.3,0,0,1,4.3-1v1.8a6.5,6.5,0,0,1,4.3-1.8c4.4,0,4.4,3,4.4,6.3v4.2c0,1.8.2,1.9,1.3,2.1h.6v.6h-6.3v-.6h.7c1-.1,1.2-.3,1.2-2.1V108c0-2.6,0-5.4-3.3-5.4a3.6,3.6,0,0,0-2.9,1.5v7.6c0,1.8.2,1.9,1.3,2.1h.6v.6H95.2Z" style="fill:#00447c"/><path d="M125.6,103.9c2.2,1.3,4.5,2.5,4.5,5.8s-3.5,5.3-6.5,5.3a8,8,0,0,1-4.4-1.1,13.7,13.7,0,0,1-.9-5l.9-.2c.3,2,1.3,5.4,5.2,5.4a3.2,3.2,0,0,0,3.4-3.5c0-2.1-1.7-3.5-3.9-4.5l-1.8-1a5.7,5.7,0,0,1-3.1-4.7c0-3.4,2.9-4.9,5.8-4.9a7.8,7.8,0,0,1,3.9.9,24.2,24.2,0,0,1,.3,3.9h-.7c-.3-1.4-.7-3.9-3.9-3.9a3,3,0,0,0-3.1,3.1c0,1.7,1.2,2.6,2.7,3.5Z" style="fill:#00447c"/><path d="M131.3,108.4a6.7,6.7,0,0,1,6.9-7.1c4,0,6.8,2.6,6.8,6.5s-3.3,7.2-6.9,7.2S131.3,112.8,131.3,108.4Zm7.2,5.6c2.6,0,3.8-2.5,3.8-5.4s-1.3-6.3-4.5-6.3-3.9,3-3.9,5.7S135.3,114,138.5,114Z" style="fill:#00447c"/><path d="M157.2,113.8a7.6,7.6,0,0,1-4.4,1.2c-3.2,0-6.5-1.9-6.5-5.9s3.8-7.7,7.2-7.7a5.7,5.7,0,0,1,3.3.8,4.4,4.4,0,0,1-.7,2.1h-.2a3.9,3.9,0,0,0-3.3-1.6c-2,0-3.7,1.6-3.7,4.8s2.3,6.6,5.5,6.6a6,6,0,0,0,2.7-.9Z" style="fill:#00447c"/><path d="M158.2,113.9h.7c1-.1,1.2-.2,1.2-2.1v-5.5c0-2.8,0-3.6-.8-3.6h-.4l-.6.2v-.7a23.3,23.3,0,0,1,4.3-1v10.5c0,1.9.2,1.9,1.3,2.1h.6v.6h-6.3Zm1.3-17.4a1.6,1.6,0,1,1,3.1,0,1.6,1.6,0,1,1-3.1,0Z" style="fill:#00447c"/><path d="M176,113.4A8.1,8.1,0,0,1,171,115a6.1,6.1,0,0,1-6.4-6.4c0-4.8,3.3-7.3,6.5-7.3s4.6,2.7,4.9,4.3a41.2,41.2,0,0,1-8.9,3,5.3,5.3,0,0,0,5.2,5.1,6.2,6.2,0,0,0,3.2-.9Zm-8.8-6.1a49.8,49.8,0,0,0,6.3-1.6c-.4-1.7-1.1-3.4-3.2-3.4S167.2,105.3,167.2,107.3Z" style="fill:#00447c"/><path d="M184.8,114a8.8,8.8,0,0,1-3.3.9c-3,0-3.1-1.6-3.1-4.7v-7.4a10.6,10.6,0,0,1-2.2-.3V102l2.2-.3v-.8a16.8,16.8,0,0,1,2.4-2.5h.3a28.3,28.3,0,0,0-.3,3.1l3,.3v.6a17.2,17.2,0,0,1-3,.3V109c0,2.2,0,4.7,2.4,4.7a4.5,4.5,0,0,0,1.4-.3Z" style="fill:#00447c"/><path d="M192,115.7c-1.1,2.6-2.4,5.4-5.2,5.4h-.6a3.4,3.4,0,0,1,.4-1.5c1.6-1.4,4.3-2,4.3-4.6a8.1,8.1,0,0,0-.8-3.1l-3.4-7.6c-.4-.9-.4-1.4-1.5-1.7l-.7-.2v-.6h6.5v.6l-1.1.3c-.4.1-.9.2-.9.5a4.1,4.1,0,0,0,.3.8l3.2,7.8c.3-.8,3.2-8,3.2-8.8s-.5-.4-.8-.5l-1.5-.3v-.6h5.7v.6l-.6.2-.8.4c-.6.6-1.9,3.7-2.7,5.6Z" style="fill:#00447c"/><path d="M205.2,108.4a6.7,6.7,0,0,1,6.9-7.1c4,0,6.8,2.6,6.8,6.5s-3.3,7.2-6.9,7.2S205.2,112.8,205.2,108.4Zm7.2,5.6c2.6,0,3.8-2.5,3.8-5.4s-1.3-6.3-4.5-6.3-3.9,3-3.9,5.7S209.3,114,212.4,114Z" style="fill:#00447c"/><path d="M219.2,113.9h.8c1.1-.1,1.1-.2,1.1-2.6v-8.3l-2.2-.3V102l2.2-.2V101c0-3.3,2-7.2,6-7.2a3.6,3.6,0,0,1,2.6.8,3.8,3.8,0,0,1-.8,1.9h-.2a3.5,3.5,0,0,0-2.7-1.4c-2.2,0-2.4,3-2.4,5v1.6l3.6.2v.6a22.2,22.2,0,0,1-3.6.3v8.3c0,2.5,0,2.6,1.1,2.6H226v.6h-6.7Z" style="fill:#00447c"/><path d="M253,109.1a15.9,15.9,0,0,1-1.2,4.8,15.4,15.4,0,0,1-5.8,1.1c-5.4,0-10.4-2.5-10.4-9.7s6-9.8,10.5-9.8a12.5,12.5,0,0,1,5.7,1.2,20.9,20.9,0,0,1,.4,4.2l-.8.2c-.3-1.1-.6-4.6-5.4-4.6s-7.5,3-7.5,8.3,2.3,9.3,7.4,9.3,5.4-2.8,6.2-5.1Z" style="fill:#00447c"/><path d="M253.7,113.9h.7c1-.1,1.2-.1,1.2-2.1v-13c0-2.2,0-3.5-1-3.5h-.8v-.6a28.3,28.3,0,0,1,4.3-.5v17.5c0,1.9.2,1.9,1.3,2.1h.6v.6h-6.3Z" style="fill:#00447c"/><path d="M261.4,113.9h.7c1-.1,1.2-.2,1.2-2.1v-5.5c0-2.8,0-3.6-.8-3.6h-.4l-.6.2v-.7a23.3,23.3,0,0,1,4.3-1v10.5c0,1.9.2,1.9,1.3,2.1h.6v.6h-6.3Zm1.3-17.4a1.6,1.6,0,1,1,3.1,0,1.6,1.6,0,1,1-3.1,0Z" style="fill:#00447c"/><path d="M268.8,113.9h.7c1-.1,1.2-.3,1.2-2.1v-5.5c0-2.8,0-3.6-.8-3.6h-.4l-.6.2v-.7a23.3,23.3,0,0,1,4.3-1v1.8a6.5,6.5,0,0,1,4.3-1.8c4.4,0,4.4,3,4.4,6.3v4.2c0,1.8.2,1.9,1.3,2.1h.6v.6h-6.3v-.6h.7c1-.1,1.2-.3,1.2-2.1V108c0-2.6,0-5.4-3.3-5.4a3.6,3.6,0,0,0-2.9,1.5v7.6c0,1.8.2,1.9,1.3,2.1h.6v.6h-6.3Z" style="fill:#00447c"/><path d="M284.8,113.9h.7c1-.1,1.2-.2,1.2-2.1v-5.5c0-2.8,0-3.6-.8-3.6h-.4l-.6.2v-.7a23.3,23.3,0,0,1,4.3-1v10.5c0,1.9.2,1.9,1.3,2.1h.6v.6h-6.3ZM286,96.5a1.6,1.6,0,1,1,3.1,0,1.6,1.6,0,1,1-3.1,0Z" style="fill:#00447c"/><path d="M302.3,113.8a7.6,7.6,0,0,1-4.4,1.2c-3.2,0-6.5-1.9-6.5-5.9s3.8-7.7,7.2-7.7a5.7,5.7,0,0,1,3.3.8,4.4,4.4,0,0,1-.7,2.1h-.2a3.9,3.9,0,0,0-3.3-1.6c-2,0-3.7,1.6-3.7,4.8s2.3,6.6,5.5,6.6a6,6,0,0,0,2.7-.9Z" style="fill:#00447c"/><path d="M314.9,114.3a3.3,3.3,0,0,1-2.1.7,2.1,2.1,0,0,1-2.2-1.2,6.6,6.6,0,0,1-4.1,1.2c-2.1,0-3.5-1.2-3.5-2.7,0-3.7,4.9-4.8,7.3-5.5v-.6c0-1.9-.5-3.5-2.6-3.5s-2.9,1.8-3.5,2.8H304a3.3,3.3,0,0,1-.7-1.1,7,7,0,0,1,5.6-3c3.2,0,3.9,1.7,3.9,4.6v4c0,2,0,4.1,1.5,4.1h.5Zm-5-6.2c-1.6,0-4.3.7-4.3,3.4a2.4,2.4,0,0,0,2.6,2.6,2.6,2.6,0,0,0,2.1-1.2v-4.8Z" style="fill:#00447c"/><path d="M315.5,113.9h.7c1-.1,1.2-.1,1.2-2.1v-13c0-2.2,0-3.5-1-3.5h-.8v-.6a28.3,28.3,0,0,1,4.3-.5v17.5c0,1.9.2,1.9,1.3,2.1h.6v.6h-6.3Z" style="fill:#00447c"/><path d="M329.9,105.4c0-6.1,4.7-9.9,10.1-9.9s9.5,3.3,9.5,9.6-4.5,9.9-10,9.9S329.9,111.5,329.9,105.4ZM340,114c4.8,0,6.6-4.1,6.6-8.2s-2.6-9.4-7-9.4-6.7,3.5-6.7,8.4S335.7,114,340,114Z" style="fill:#00447c"/><path d="M350.6,113.9h.7c1-.1,1.2-.3,1.2-2.1v-5.5c0-2.8,0-3.6-.8-3.6h-.4l-.6.2v-.7a23.3,23.3,0,0,1,4.3-1v1.8a6.4,6.4,0,0,1,4.3-1.8c4.4,0,4.4,3,4.4,6.3v4.2c0,1.8.2,1.9,1.3,2.1h.6v.6h-6.3v-.6h.7c1-.1,1.2-.3,1.2-2.1V108c0-2.6,0-5.4-3.3-5.4a3.6,3.6,0,0,0-2.9,1.5v7.6c0,1.8.2,1.9,1.3,2.1h.6v.6h-6.3Z" style="fill:#00447c"/><path d="M376.5,113.8A7.6,7.6,0,0,1,372,115c-3.2,0-6.5-1.9-6.5-5.9s3.8-7.7,7.2-7.7a5.7,5.7,0,0,1,3.3.8,4.4,4.4,0,0,1-.7,2.1h-.2a3.9,3.9,0,0,0-3.3-1.6c-2,0-3.7,1.6-3.7,4.8s2.3,6.6,5.5,6.6a6,6,0,0,0,2.7-.9Z" style="fill:#00447c"/><path d="M376.8,108.4a6.7,6.7,0,0,1,6.9-7.1c4,0,6.8,2.6,6.8,6.5s-3.3,7.2-6.9,7.2S376.8,112.8,376.8,108.4ZM384,114c2.6,0,3.8-2.5,3.8-5.4s-1.3-6.3-4.5-6.3-3.9,3-3.9,5.7S380.8,114,384,114Z" style="fill:#00447c"/><path d="M390.9,113.9h.7c1-.1,1.2-.1,1.2-2.1v-13c0-2.2,0-3.5-1-3.5H391v-.6a28.3,28.3,0,0,1,4.3-.5v17.5c0,1.9.2,1.9,1.3,2.1h.6v.6h-6.3Z" style="fill:#00447c"/><path d="M397.4,108.4a6.7,6.7,0,0,1,6.9-7.1c4,0,6.8,2.6,6.8,6.5s-3.3,7.2-6.9,7.2S397.4,112.8,397.4,108.4Zm7.2,5.6c2.6,0,3.8-2.5,3.8-5.4s-1.3-6.3-4.5-6.3-3.9,3-3.9,5.7S401.4,114,404.6,114Z" style="fill:#00447c"/><path d="M419.8,112.4c1.3,0,4.7.5,4.7,3.7s-3.2,5-7.4,5-5.4-1.5-5.4-3.9,2-2.8,3.2-3.2h0c-.8-.3-2.3-1-2.3-2.2s1.7-1.7,2.5-2.3c-1.2-.4-2.9-1.2-2.9-3.6s3.2-4.7,5.7-4.7a53.6,53.6,0,0,1,6.9,1.1v.5l-2.6.3a3.6,3.6,0,0,1,.8,2.3c0,3-2.3,4.5-5.5,4.5h-1.1c-.6.3-1.5.6-1.5,1.3s1.3,1.2,3.3,1.2Zm-1.6,7.8c2.5,0,4.1-1.6,4.1-3.4s-2.1-2.6-4.5-2.6-3.7.6-3.7,2.4S415.7,120.2,418.2,120.2Zm-.5-11.1c1.8,0,2.8-1.5,2.8-3.2s-1.4-3.6-2.8-3.6-2.8,1.4-2.8,3.4S416,109.1,417.7,109.1Z" style="fill:#00447c"/><path d="M433.3,115.7c-1.1,2.6-2.4,5.4-5.2,5.4h-.6a3.3,3.3,0,0,1,.4-1.5c1.6-1.4,4.3-2,4.3-4.6a8.1,8.1,0,0,0-.8-3.1l-3.4-7.6c-.4-.9-.4-1.4-1.5-1.7l-.7-.2v-.6h6.5v.6l-1.1.3c-.4.1-.9.2-.9.5a4.1,4.1,0,0,0,.3.8l3.2,7.8c.3-.8,3.2-8,3.2-8.8s-.5-.4-.8-.5l-1.5-.3v-.6h5.7v.6l-.6.2-.8.4c-.6.6-1.9,3.7-2.7,5.6Z" style="fill:#00447c"/><path d="M255.7,19.4h-2.4c-1.5-9-7.3-12.3-15.6-12.3-15.2-.1-20.5,12.6-20.5,25.1,0,9.3,3.5,24.8,20.3,24.8,8.7,0,13-3.8,15.6-9.5a30.1,30.1,0,0,0,3,6.1l-.2,2.4c-3.9,2-11.4,3.7-17.9,3.7-9.1,0-17.1-1.8-22.2-6.5S208,41.4,208,32.5s2.8-15.2,7.4-20.2,13-7.9,23-7.9c7.4,0,13.6,1.4,17.3,3Z" style="fill:#00447c"/><path d="M145.8,58.6V56.4l3.7-.3c2.6-.2,3-1.1,2.2-3.3l-5.5-14.6H128c-1.9,5.4-3.6,10.2-5,14.8-.7,2.1-.4,2.8,2,3.1l4.2.4v2.2H111.3V56.4c5.1-.2,5.9-1.1,7.6-5.3,2.9-7,6.3-16.2,8.8-22.8l8.6-22.7h6l17.3,46.2c1.5,4,2.4,4.2,7.1,4.6v2.2Zm-8.6-45.3h-.2c-2.4,6.7-5.3,14.3-7.9,21.9h16.2Z" style="fill:#00447c"/><path d="M168.1,42.9h2.6c2,8.6,7.1,14.2,14.8,14.2s11.7-4,11.7-10.6-7.7-10.3-11.3-11.6l-1.5-.5c-8.6-2.8-15.4-7.1-15.4-15.1,0-10.1,8.8-14.8,18.8-14.8,5.5,0,11.1,1.3,13.9,3.4V18.6h-2.5c-1.3-7.7-5.2-11.5-12.2-11.5s-10.4,4.1-10.4,9.7,4.6,7.9,10,9.8l2.6.9c9.5,3.3,16.1,7.6,16.1,16.6S199.5,59.7,185,59.7c-5.7,0-12.5-1.5-16.1-4.6Z" style="fill:#00447c"/><path d="M267,61.9c17.1,5.1,37.1,1,48.7-11.3,14.1-14.9,10.3-36.1-8.3-47.3A45.4,45.4,0,0,0,300.7.1h0a54.6,54.6,0,0,1,7.6,3.8c22.6,13.6,27.1,39.2,10.1,57.2-13.9,14.7-37.8,19.8-58.4,13.8Z" style="fill:#00447c"/><path d="M285.1,61.4l1.3-4.5c-13.6-3.3-23.6-13.8-23.6-26.3,0-15.1,14.7-27.4,32.9-27.4a39.4,39.4,0,0,1,6,.5h0a47.9,47.9,0,0,0-6.9-.5C272.8,3.2,255,18,255,36.3,255.1,66.1,285.1,61.4,285.1,61.4Z" style="fill:#00447c"/><path d="M301.7,42.4a24.8,24.8,0,0,1-10.9-2.1c-9.6-4.2-15.2-13.5-14.1-22.4a23.1,23.1,0,0,0,9.1,35C291.6,52.1,297.5,48.3,301.7,42.4Z" style="fill:url(#a)"/><path d="M292.1,37.2a24.7,24.7,0,0,0,11.5,2,32.7,32.7,0,0,0,1.9-4.3c3.3-9,2.3-18.3-1.9-24.5a23,23,0,0,0-25.7,6C277.6,24.8,283,33.3,292.1,37.2Z" style="fill:url(#b)"/><path d="M308.7,36.1l-1,2.4a19.9,19.9,0,0,0,10.3-6.4c0-.1,0-.3,0-.4a23,23,0,0,0-10.8-19.5C311.1,18.5,311.9,27.5,308.7,36.1Z" style="fill:url(#c)"/><path d="M306,41.8c-4.2,6.9-10.5,11.4-17,12.3a23,23,0,0,0,29-20.5A19.6,19.6,0,0,1,306,41.8Z" style="fill:url(#d)"/><path d="M331.4,11.8a4.2,4.2,0,0,1-4.3-4.3,4.3,4.3,0,1,1,8.7,0A4.2,4.2,0,0,1,331.4,11.8Zm0-8a3.6,3.6,0,0,0-3.6,3.6,3.6,3.6,0,0,0,7.3,0A3.6,3.6,0,0,0,331.4,3.8Zm1,4,1,1.9h-.9l-.9-1.8h-.9V9.7h-.8V5h2.1a1.4,1.4,0,0,1,1.5,1.4A1.3,1.3,0,0,1,332.4,7.8Zm-.6-2h-1.2V7.1h1.2c.4,0,.8-.2.8-.7A.7.7,0,0,0,331.8,5.8Z" style="fill:#00447c"/></svg>