<?xml version="1.0" encoding="UTF-8"?>
<!-- Generator: Adobe Illustrator 19.2.0, SVG Export Plug-In . SVG Version: 6.00 Build 0)  -->
<svg version="1.1" id="Layer_1" xmlns="http://www.w3.org/2000/svg" xmlns:xlink="http://www.w3.org/1999/xlink" x="0px" y="0px" viewBox="0 0 937 405" style="enable-background:new 0 0 937 405;" xml:space="preserve">
<style type="text/css">
	.st0{fill:#4DCDB3;}
	.st1{fill:#FF9067;}
	.st2{fill:#871472;}
	.st3{fill:#0099D3;}
	.st4{fill:#404040;}
	.st5{fill:#FFFFFF;}
</style>
<g>
	<path class="st0" d="M139.4,88.6c56-24,124.1-10.4,152.1,30.4c28.1,40.8,5.4,93.3-50.5,117.2s-124.1,10.4-152.1-30.4   S83.4,112.6,139.4,88.6z"/>
	<g>
		<path class="st1" d="M82.3,158.8c22-33.4,68.1-34.7,103-2.9s45.3,84.7,23.2,118.1s-68.1,34.7-103,2.9S60.2,192.2,82.3,158.8z"/>
	</g>
	<g>
		<path class="st2" d="M228.4,100.6c37.8-16.9,77.4,10,88.4,60s-10.7,104.2-48.5,121.1s-77.4-10-88.4-60S190.6,117.4,228.4,100.6z"/>
	</g>
	<g>
		<path class="st3" d="M156.8,188.1c40.1-33,99-39,131.6-13.3s26.5,73.3-13.5,106.3s-99,39-131.6,13.3S116.8,221.1,156.8,188.1z"/>
	</g>
	<g>
		<circle class="st4" cx="195.2" cy="191" r="115"/>
	</g>
	<g>
		<path class="st5" d="M191.8,237.3c-4.8,2.4-14.4,4.8-26.7,4.8c-28.5,0-49.9-18-49.9-51.1c0-31.6,21.4-53.1,52.8-53.1    c12.6,0,20.5,2.7,24,4.5l-3.1,10.6c-4.9-2.4-12-4.2-20.4-4.2c-23.7,0-39.4,15.1-39.4,41.7c0,24.7,14.2,40.6,38.8,40.6    c7.9,0,16-1.7,21.3-4.2L191.8,237.3z"/>
		<path class="st5" d="M275.7,237.3c-4.8,2.4-14.4,4.8-26.7,4.8c-28.5,0-49.9-18-49.9-51.1c0-31.6,21.4-53.1,52.8-53.1    c12.6,0,20.5,2.7,24,4.5l-3.2,10.6c-4.9-2.4-12-4.2-20.4-4.2c-23.7,0-39.4,15.1-39.4,41.7c0,24.7,14.2,40.6,38.8,40.6    c7.9,0,16-1.7,21.3-4.2L275.7,237.3z"/>
	</g>
</g>
<g>
	<g>
		<path class="st1" d="M399,203.2c-0.6,0.5-1.4,0.9-2.4,1.5c-1.1,0.6-2.3,1.1-3.7,1.6c-1.5,0.5-3.1,0.9-4.8,1.2    c-1.8,0.3-3.7,0.5-5.8,0.5c-4.2,0-7.9-0.8-11.2-2.3c-3.3-1.6-6.1-3.6-8.3-6.2c-2.3-2.6-4-5.7-5.3-9.2c-1.3-3.5-1.8-7.2-1.8-11    c0-4.3,0.7-8.3,2.2-11.9s3.5-6.8,5.9-9.4c2.5-2.6,5.4-4.7,8.7-6.1s6.8-2.2,10.6-2.2c1.5,0,2.9,0.1,4.4,0.3    c1.5,0.2,2.8,0.6,4.2,0.9c1.3,0.3,2.4,0.8,3.5,1.2c0.9,0.5,1.7,1,2.1,1.5c-0.4,0.7-0.7,1.4-1.1,1.8c-0.2,0.5-0.5,0.9-0.7,1.5    c-0.3,0.5-0.5,1-0.8,1.7c-0.3,0.7-0.7,1.5-1.4,2.6c-0.6-0.5-1.3-0.8-2.1-1.1c-0.8-0.3-1.7-0.6-2.6-0.8s-1.8-0.3-2.7-0.5    c-0.9-0.1-1.8-0.1-2.4-0.1c-2.7,0-5.3,0.6-7.6,1.7s-4.3,2.5-6,4.3c-1.7,1.8-2.9,3.9-3.9,6.4c-0.9,2.4-1.4,4.9-1.4,7.5    c0,2.5,0.4,5,1.4,7.4s2.1,4.5,3.8,6.4c1.6,1.8,3.6,3.3,5.8,4.4c2.2,1.1,4.7,1.7,7.4,1.7c1.6,0,3.1-0.1,4.5-0.5    c1.5-0.3,2.7-0.7,3.9-1.1c1.2-0.5,2-0.8,2.7-1.2c0.7-0.5,1.1-0.7,1.2-0.9L399,203.2z"/>
		<path class="st1" d="M402.1,179c0-4,0.7-7.7,2.1-11.2c1.5-3.5,3.4-6.7,5.8-9.3c2.4-2.7,5.3-4.8,8.6-6.4c3.3-1.6,6.7-2.4,10.5-2.4    c3.7,0,7.2,0.8,10.4,2.4c3.3,1.6,6.2,3.6,8.6,6.4c2.4,2.6,4.4,5.8,5.9,9.3s2.1,7.4,2.1,11.2c0,4-0.7,7.8-2.1,11.4    c-1.5,3.5-3.4,6.6-5.9,9.3c-2.4,2.6-5.4,4.8-8.6,6.2c-3.3,1.5-6.7,2.3-10.4,2.3s-7.3-0.8-10.5-2.3c-3.3-1.5-6.1-3.6-8.6-6.2    c-2.4-2.6-4.4-5.7-5.8-9.3C402.8,186.7,402.1,183,402.1,179z M411.1,179c0,2.7,0.4,5.3,1.4,7.8c0.9,2.5,2.2,4.5,3.9,6.4    c1.7,1.8,3.6,3.2,5.8,4.3c2.2,1,4.6,1.6,7.2,1.6c2.4,0,4.8-0.6,7-1.6c2.2-1,4.1-2.5,5.8-4.3c1.6-1.8,2.9-4,3.9-6.4    c0.9-2.4,1.4-5,1.4-7.8c0-2.7-0.5-5.3-1.5-7.8c-0.9-2.4-2.3-4.5-3.9-6.4c-1.7-1.8-3.6-3.3-5.8-4.3s-4.5-1.6-7-1.6s-4.8,0.6-7,1.6    c-2.2,1-4.1,2.5-5.8,4.3c-1.6,1.8-2.9,4-3.9,6.4C411.5,173.6,411.1,176.2,411.1,179z"/>
		<path class="st1" d="M511.8,150.3v59.8c-0.3-0.5-1.1-1.4-2.2-2.6c-1.2-1.2-2.6-2.7-4.3-4.5c-1.7-1.7-3.6-3.6-5.7-5.8    s-4.2-4.3-6.3-6.5c-2.1-2.2-4.2-4.3-6.2-6.4c-2-2-3.9-4-5.6-5.8c-1.7-1.7-3.1-3.3-4.2-4.4c-1.2-1.2-1.9-2-2.2-2.5    c0-0.1-0.2-0.3-0.6-0.8c-0.3-0.5-0.6-0.8-0.8-1.2l0.2,2.5v35.4h-8.8v-59.8c0.3,0.5,1.1,1.4,2.2,2.5c1.2,1.2,2.6,2.7,4.3,4.4    c1.7,1.7,3.6,3.6,5.7,5.7s4.1,4.1,6.3,6.2c2.1,2.2,4.2,4.2,6.2,6.2s3.9,4,5.6,5.7c1.7,1.7,3.2,3.2,4.2,4.3c1.2,1.2,1.9,2,2.2,2.5    l1.4,2.2l-0.2-2.6v-34.6h8.9V150.3z"/>
		<path class="st1" d="M524,207.4v-57.2h32.2v8.9h-23.4v16h20.3v9h-20.3v23.4H524z"/>
		<path class="st1" d="M564.7,150.3h8.9v57.2h-8.9V150.3z"/>
		<path class="st1" d="M585.8,150.3h13.8c5.4,0,9.9,0.9,13.6,2.6c3.7,1.7,6.7,4,9,6.8c2.3,2.7,4,5.9,5,9.4c1.1,3.5,1.6,7,1.6,10.6    c0,4.3-0.7,8.2-2.1,11.6c-1.5,3.4-3.4,6.4-5.8,8.7c-2.4,2.4-5.3,4.2-8.4,5.6c-3.3,1.2-6.6,1.9-10.2,1.9H586v-57.2H585.8z     M600.8,198.3c2.7,0,5.3-0.5,7.7-1.2c2.3-0.8,4.3-2,6-3.7c1.7-1.7,3.1-3.6,4-6c0.9-2.4,1.4-5.1,1.4-8.3c0-3.5-0.5-6.6-1.7-9.1    c-1.2-2.5-2.6-4.5-4.3-6c-1.8-1.6-3.7-2.6-5.8-3.4c-2.1-0.7-4.2-1-6.1-1h-7.2v38.8L600.8,198.3L600.8,198.3z"/>
		<path class="st1" d="M637.6,207.4v-57.2h35.1v8.7h-26.3v15.3h23.4v9h-23.4v15.2h27.4v9L637.6,207.4L637.6,207.4z"/>
		<path class="st1" d="M729.4,150.3v59.8c-0.3-0.5-1.1-1.4-2.2-2.6c-1.2-1.2-2.6-2.7-4.3-4.5c-1.7-1.7-3.6-3.6-5.7-5.8    s-4.2-4.3-6.3-6.5c-2.1-2.2-4.2-4.3-6.2-6.4c-2-2-3.9-4-5.6-5.8c-1.7-1.7-3.1-3.3-4.2-4.4c-1.2-1.2-1.9-2-2.2-2.5    c0-0.1-0.2-0.3-0.6-0.8c-0.3-0.5-0.6-0.8-0.8-1.2l0.2,2.5v35.4h-8.8v-59.8c0.3,0.5,1.1,1.4,2.2,2.5c1.2,1.2,2.6,2.7,4.3,4.4    c1.7,1.7,3.6,3.6,5.7,5.7s4.1,4.1,6.3,6.2c2.1,2.2,4.2,4.2,6.2,6.2c2,2,3.9,4,5.6,5.7c1.7,1.7,3.2,3.2,4.2,4.3    c1.2,1.2,1.9,2,2.2,2.5l1.4,2.2l-0.2-2.6v-34.6h8.9V150.3z"/>
		<path class="st1" d="M773.4,150.3v9.2h-13v48h-8.9v-48h-12.8v-9.2H773.4z"/>
		<path class="st1" d="M782.5,150.3h8.9v57.2h-8.9V150.3z"/>
		<path class="st1" d="M836.3,207.4c-0.1-0.3-0.4-1-0.7-1.9c-0.3-0.9-0.8-2-1.4-3.4c-0.5-1.4-1.2-2.8-1.8-4.5    c-0.6-1.7-1.3-3.4-2-5.1h-18.2l-5.8,15.1h-8.8c0.2-0.5,0.6-1.6,1.4-3.5c0.7-1.8,1.7-4.2,2.7-6.9c1.1-2.7,2.3-5.8,3.7-9.2    s2.7-6.8,4.1-10.3c1.4-3.5,2.7-6.9,4.1-10.3s2.5-6.5,3.7-9.2c1.1-2.7,2-5,2.7-6.9c0.7-1.8,1.2-3.1,1.4-3.5    c0.2,0.5,0.6,1.6,1.4,3.5c0.7,1.8,1.7,4.2,2.7,6.9c1.1,2.7,2.3,5.8,3.7,9.2c1.4,3.4,2.7,6.8,4.1,10.3c1.4,3.5,2.7,6.9,4.1,10.3    s2.5,6.5,3.7,9.2c1.1,2.7,2,5,2.7,6.9c0.7,1.8,1.2,3.1,1.4,3.5L836.3,207.4L836.3,207.4z M815.3,184.4h12.1l-5.3-13.6    c0,0-0.2-0.5-0.3-1c-0.2-0.7-0.3-1.2-0.4-1.8c-0.1,0.6-0.2,1.1-0.4,1.8c-0.2,0.7-0.3,1-0.3,1L815.3,184.4z"/>
		<path class="st1" d="M851.1,207.4v-57.2h8.8v48.2h25.8v9.1H851.1z"/>
	</g>
	<g>
		<path class="st4" d="M419,301.2c-0.9,0.6-2.1,1.3-3.6,2.1c-1.5,0.8-3.4,1.5-5.4,2.1c-2.1,0.6-4.4,1.2-6.9,1.6    c-2.5,0.4-5.3,0.6-8.1,0.6c-6.1,0-11.6-1.1-16.4-3.2c-4.8-2.1-8.9-5-12.3-8.5c-3.4-3.6-5.9-7.7-7.7-12.5    c-1.8-4.7-2.7-9.7-2.7-15.1c0-5.9,1.1-11.3,3.2-16.2c2.1-4.9,5-9.2,8.7-12.8c3.7-3.6,7.9-6.4,12.8-8.4c4.9-2,10.1-3,15.6-3    c2.1,0,4.2,0.1,6.3,0.4c2.2,0.3,4.2,0.7,6.1,1.2c1.9,0.5,3.6,1.1,5.1,1.8c1.5,0.7,2.6,1.4,3.4,2.1c-0.6,0.9-1,1.6-1.3,2.2    c-0.3,0.6-0.7,1.2-1,1.8c-0.4,0.6-0.8,1.3-1.2,2.1c-0.4,0.8-1,1.8-1.7,3.1c-0.9-0.6-2-1.2-3.3-1.6c-1.3-0.4-2.6-0.8-3.9-1.1    c-1.4-0.3-2.7-0.5-4.1-0.6s-2.7-0.2-3.8-0.2c-4.2,0-8,0.8-11.6,2.3c-3.5,1.5-6.6,3.6-9.2,6.2c-2.6,2.6-4.6,5.6-6.1,9.1    c-1.5,3.4-2.2,7-2.2,10.8c0,3.7,0.7,7.2,2.1,10.5c1.4,3.4,3.3,6.4,5.8,9c2.5,2.7,5.4,4.8,8.9,6.3c3.5,1.6,7.3,2.4,11.4,2.4    c2.2,0,4.4-0.2,6.5-0.6c2.1-0.4,4-0.9,5.6-1.5c1.7-0.6,3.1-1.1,4.2-1.7c1.1-0.6,1.8-1,2-1.3L419,301.2z"/>
		<path class="st4" d="M422.1,267.9c0-5.4,1-10.5,3.1-15.3c2.1-4.8,4.9-9.1,8.5-12.7c3.6-3.7,7.8-6.5,12.6-8.7    c4.8-2.1,10-3.2,15.5-3.2c5.4,0,10.6,1.1,15.4,3.2s9.1,5,12.7,8.7c3.6,3.7,6.5,7.9,8.6,12.7c2.1,4.8,3.2,9.9,3.2,15.3    c0,5.5-1.1,10.7-3.2,15.5c-2.1,4.8-5,9-8.6,12.6c-3.6,3.6-7.8,6.5-12.7,8.5c-4.8,2.1-10,3.1-15.4,3.1c-5.5,0-10.7-1-15.5-3.1    c-4.8-2.1-9-4.9-12.6-8.5c-3.6-3.6-6.5-7.8-8.5-12.6C423.1,278.6,422.1,273.4,422.1,267.9z M433.8,268c0,3.9,0.7,7.7,2.2,11.1    c1.5,3.5,3.5,6.5,6.1,9.1c2.6,2.6,5.6,4.6,9,6.1c3.4,1.5,7.1,2.3,11,2.3s7.5-0.8,10.9-2.3c3.4-1.5,6.4-3.5,8.9-6.1    c2.5-2.6,4.6-5.6,6-9.1c1.5-3.5,2.2-7.2,2.2-11.2c0-3.9-0.7-7.6-2.2-11.1c-1.5-3.5-3.5-6.5-6.1-9.1c-2.6-2.6-5.6-4.6-9-6.1    c-3.4-1.5-7-2.3-10.9-2.3s-7.5,0.8-11,2.3c-3.4,1.5-6.4,3.5-9,6.1c-2.5,2.6-4.6,5.6-6,9.1C434.5,260.3,433.8,264.1,433.8,268z"/>
		<path class="st4" d="M515.4,225.4c0.6,1,2,2.9,4,5.8c2,2.8,4.4,6.1,7.1,9.8c2.7,3.7,5.5,7.7,8.5,11.9c3,4.2,5.8,8.1,8.5,11.8    c2.7,3.7,5,6.9,6.9,9.6c2,2.7,3.3,4.5,3.9,5.4c0.2-0.4,0.9-1.3,2-2.9c1.1-1.6,2.6-3.5,4.2-5.9c1.7-2.4,3.6-5,5.8-8    c2.2-3,4.4-6,6.6-9.1c2.3-3.1,4.5-6.2,6.7-9.3c2.2-3.1,4.2-5.9,6.1-8.4c1.9-2.5,3.5-4.8,4.8-6.7c1.3-1.9,2.3-3.2,2.8-3.9v81.4H581    v-43.6c0-0.6,0.1-1.2,0.2-1.8c0.1-0.6,0.2-1.1,0.2-1.4c-0.6,0.9-1.7,2.3-3.1,4.4c-1.4,2-3,4.4-4.8,7c-1.8,2.6-3.7,5.4-5.8,8.3    c-2,2.9-3.9,5.6-5.7,8.2c-1.8,2.6-3.4,4.9-4.7,6.8c-1.4,2-2.3,3.4-2.8,4.1c-0.5-0.6-1.5-2-3-4c-1.5-2-3.2-4.4-5.2-7.1    c-2-2.7-4-5.6-6.2-8.7c-2.2-3.1-4.2-5.9-6.1-8.6c-1.9-2.6-3.5-4.9-4.8-6.8c-1.4-1.9-2.1-3.1-2.4-3.5c0,0.3,0.1,0.8,0.2,1.4    c0.1,0.6,0.2,1.3,0.2,1.8v43.6h-11.7V225.4z"/>
		<path class="st4" d="M612.6,306.8v-77.9h21.3c4.1,0,7.8,0.5,11.2,1.6c3.4,1.1,6.3,2.7,8.8,4.8c2.5,2.1,4.4,4.7,5.8,7.7    c1.4,3,2,6.5,2,10.5c0,3.1-0.5,6.1-1.4,9.2c-0.9,3-2.4,5.8-4.5,8.2c-2.1,2.4-4.8,4.4-8.2,5.9c-3.4,1.5-7.5,2.3-12.3,2.3h-11v27.8    H612.6z M624.4,267.9H635c2.9,0,5.3-0.5,7.2-1.5c1.9-1,3.5-2.2,4.6-3.7c1.1-1.4,1.9-3,2.4-4.6c0.5-1.6,0.7-3.1,0.7-4.4    c0-1.4-0.2-2.8-0.7-4.5c-0.5-1.6-1.3-3.1-2.4-4.5c-1.1-1.4-2.7-2.6-4.6-3.5c-1.9-0.9-4.2-1.4-7-1.4h-10.8V267.9z"/>
		<path class="st4" d="M716.6,306.8c-0.4-0.8-0.9-1.9-1.5-3.4c-0.6-1.5-1.4-3.2-2.2-5.2c-0.8-2-1.7-4.1-2.7-6.5c-1-2.3-2-4.7-3-7.3    h-27.5l-9.2,22.4h-11.6l34.7-81.6c0.4,1,1.2,2.8,2.3,5.5c1.1,2.7,2.4,5.8,4,9.5c1.5,3.7,3.3,7.8,5.2,12.3c1.9,4.5,3.8,9,5.8,13.6    c2,4.6,3.9,9.1,5.8,13.5c1.9,4.4,3.6,8.5,5.2,12.3c1.6,3.7,2.9,6.9,4,9.5c1.1,2.6,1.9,4.4,2.3,5.4H716.6z M683.8,274.6h19.5    c-1-2.4-2-4.6-2.8-6.8c-0.9-2.2-1.7-4.2-2.5-6c-0.8-1.8-1.4-3.4-2-4.8c-0.6-1.4-1-2.4-1.3-3.2c-0.1-0.1-0.2-0.6-0.5-1.5    c-0.3-0.9-0.4-1.6-0.6-2.4c-0.1,0.7-0.4,1.5-0.6,2.4c-0.3,0.9-0.5,1.4-0.5,1.5L683.8,274.6z"/>
		<path class="st4" d="M806.3,228.9v81.5c-1-1.3-2.9-3.4-5.8-6.2c-2.9-2.9-6.2-6.2-9.9-9.9c-3.7-3.7-7.7-7.6-11.9-11.7    c-4.2-4.1-8.2-8-11.9-11.7c-3.7-3.7-7-7-9.8-9.9c-2.8-2.9-4.7-5-5.6-6.2l-2-2.8l0.3,3.4v51.4h-11.8v-81.6c0.8,1,2.1,2.4,3.9,4.3    c1.8,1.9,4,4,6.5,6.5s5.2,5.1,8.2,8c3,2.9,6,5.8,9,8.7c3,2.9,6.1,5.8,9,8.7c3,2.8,5.7,5.5,8.2,7.9c2.5,2.4,4.6,4.6,6.4,6.5    c1.8,1.9,3,3.3,3.8,4.2l2,3l-0.3-3.7v-50.4H806.3z"/>
		<path class="st4" d="M857,281.1v25.7h-11.8v-25.7c-0.5-0.8-1.5-2.5-3-5.2c-1.5-2.7-3.2-5.8-5.2-9.4c-2-3.6-4.1-7.5-6.3-11.6    c-2.3-4.1-4.4-7.9-6.3-11.6c-2-3.6-3.7-6.8-5.2-9.4c-1.5-2.7-2.5-4.4-3-5.2h13.3c0.6,1.1,1.8,3.1,3.4,6.2c1.6,3,3.5,6.5,5.5,10.3    c2,3.8,4,7.7,6.1,11.6c2.1,3.9,3.8,7.3,5.3,10.1l1.2,3.5c0.3-0.6,0.5-1.2,0.8-1.8c0.2-0.6,0.4-1.2,0.6-1.8    c1.5-2.8,3.3-6.1,5.3-10.1c2-3.9,4-7.8,6-11.6c2-3.8,3.8-7.3,5.4-10.3c1.6-3,2.7-5.1,3.4-6.2h13.2L857,281.1z"/>
	</g>
</g>
</svg>