<svg xmlns="http://www.w3.org/2000/svg" width="308.8" height="100" viewBox="0 0 308.8 100"><path d="M292.4,94.8v.9h-1.7V100h-1V95.7H288v-.9ZM298,100l-.2-3.1c0-.4,0-.9,0-1.5h-.1l-.4,1.5-.9,2.9h-1.1l-.9-3-.4-1.5h-.1c0,.5,0,1,0,1.5l-.2,3.1h-1l.4-5.2h1.5l.9,2.5.3,1.3h0l.4-1.3.9-2.6h1.5l.4,5.2Z" style="fill:#19468d"/><path d="M303,21.4l-1.9.9h0l-1,.4h-.1l-.9.4h0l-1,.3h0l-1.9.6h0l-.9.2h-.1l-.9.2h-.1l-.9.2h0l-1.7.3h-14l-5.1.3H260.2l-.3.3h-.4v.2h0v.2h0v.2h0v.2h.9v.2h.1l.2.2h.1l.3.3,2.4,2,.6.4,1.3.8.8.4-1.3,6.1-.8-.4-1.4-.6-.6-.3-4.9-2.6a36,36,0,0,1-3.9-2.6l-.5-.4-.9-.7a14.4,14.4,0,0,1-3.7-4.7c-3-6.7,4.4-10.9,10-12.6l.9-.3h.2l.9-.2h.1l.8-.2h.1l.8-.2h.2l.9-.2h0l.8-.2h2.9l1.6-.2h4.3l6.8-.4h5.4l.7-.2h.1l.7-.2h.1l.7-.2h.1l.7-.2h.1l.7-.2h0l.7-.3h.1l.7-.3h.1l.7-.3.9-.5h.3l.6-.3h.3l.7-.4h.1l.7-.5.3-.2.5-.3.3-.2.5-.3h.2l-1.4-1.6-.2-.2c-1.4-1.2-3.1-1.6-4.2-2.3s-3.3-4.6-6.6-4.3-3,2-4.7,11.1l-.2,1.3-4.4.3h-1.6l.9-4.3c1.3-6.9,1.6-9.2.1-10.1s-8.5.5-9.7.8-3-.1-4.8.6-7.6,5-8.4,5.8-4,2.2-5,4.6-.7,3.3-.7,3.3-2.8,2.8-4.7,5-1.9,3.7-2.7,4.5-.6,2.5-1.4,3.2-2.6,1.7-3.4,3.1-2,4.5-2.6,5.4-2.5,4.9-2.2,5.8a4.9,4.9,0,0,0,1,1.7s-1.9,3.2-1.9,5.1-1.3,6.2-2.1,7.9.6,3.9,1.3,4.5-.1,3.3.7,3.9a11.2,11.2,0,0,0,1.4,7.7c2,3.6,5,6.2,5.8,7.4s1.1,3.9,2.3,4.9,2.3,1.4,2.6,2,.5,1.5.9,1.9,2.3.5,2.6.8,5.3,4.3,7.6,4.2a4.3,4.3,0,0,0,3.1-1,6.1,6.1,0,0,0,3.1-3.8c.5-2.3,2.4-10,2.4-10l2.5-12h2.2l4-.3-2.8,13.4s-1.1,8-1.6,10.3a6.2,6.2,0,0,0,1.4,4.7,4.3,4.3,0,0,0,2.5,2.1c2.2,1,7.8-.4,8.7-1s2.1.4,2.7.2,1.1-1,1.6-1.4,1.7-.4,3.2-.9,2.8-2.8,4-3.6l1.5-.8-.7-.3c-7.7-2.9-13.4-5.4-20.8-8.9l1.2-5.7,3.4,1.9,5.3,3c3.3,1.7,10.2,5.1,16.1,7.7a12.6,12.6,0,0,0,2.1-1.5,11.1,11.1,0,0,0,4.2-6.6c1-.2,1.4-3.1,2.2-3.3s2.9-1.8,2.9-3.6.3-6.3,1.1-8.1.2-5.5.2-5.5a4.9,4.9,0,0,0,1.5-1.2c.6-.7.4-5.1.2-6.2s-.1-4.4-.3-6-1.5-3.2-2-4.2.4-2.4-.1-3.5.1-2.5-.8-5.2S303,27,303,27s.7-.7.7-3.3v-.2Zm-32.3,7.4,2-.2,3.9-.2h.1l-5.6,27.1h-.8l-5.4.5Zm24.1,29a5.5,5.5,0,0,1-1.1,1.7l-.2.2a13.2,13.2,0,0,1-5.4,2.8l-.6.2-1.8.4h-.3l-.9.2-.9.2h-.8l-2.2.3H269l-4.6.3h-6.8v.2h0a1.1,1.1,0,0,0,0,.2h.1v.2a3.3,3.3,0,0,0,1.7,1.9l-1.2,5.8-.3-.2h-.1l-.3-.2-.7-.4-.4-.2-.7-.4-1.1-.6-1.5-.8-.7-.4-2.1-1.5a11.2,11.2,0,0,1-2.9-3.3c-1.7-3.1.6-5.6,3.5-6.8l.8-.3h.2l.5-.2h.3l.5-.2h.3l.5-.2h.2l.7-.2h.1l.8-.2h7.1l1.7-.2,6.1-.5h3.4l2.3-.2h.5l1.3-.2.8-.2h.5l.8-.2h.5c2.5-.7,4.4-1.9,2.4-3.7l-1-.8-.6-.4-1.1-.5-5.6-2.1,1.3-6.1,4.4,1.8c4.5,2,14.8,5.7,14.7,11.6A5.2,5.2,0,0,1,294.8,57.9Z" style="fill:#19468d"/><path d="M72.3,28.5l-2.3-5.1H57.7l-2.2,5.1H53.7L63,7.8h1.7l9.3,20.7Zm-2.9-6.6L63.9,9.3,58.3,21.9Z" style="fill:#231f20"/><path d="M95.4,10.1,87.4,22.2h-.5l-8-12.1V28.5H77.3V7.8h1.9l7.9,12.1L95,7.8h2V28.5H95.4Z" style="fill:#231f20"/><path d="M103.9,17.3h12.1v1.4H103.9v8.2H117v1.5H102.4V7.8h14.3V9.3H103.9Z" style="fill:#231f20"/><path d="M137.9,28.5h-2.1l-7.2-7.8H123v7.8h-1.6V7.8h9.1a6.4,6.4,0,0,1,6.8,6.4c0,3.4-2.2,6.3-6.7,6.3ZM123,19.1h7.3c3.6,0,5.2-2,5.2-4.9a4.8,4.8,0,0,0-5.1-4.9H123Z" style="fill:#231f20"/><path d="M141.5,28.5V7.8h1.6V28.5Z" style="fill:#231f20"/><path d="M165.6,25.6a10.7,10.7,0,0,1-7.5,3.1c-7,0-10.6-4.9-10.6-10.5S151,7.5,158.1,7.5a10.7,10.7,0,0,1,7.5,3.1l-1.1.9a9,9,0,0,0-6.4-2.6c-6,0-9.1,4.3-9.1,9.2s3.1,9,9.1,9a9.3,9.3,0,0,0,6.5-2.6Z" style="fill:#231f20"/><path d="M185.8,28.5l-2.3-5.1H171.1l-2.2,5.1h-1.7l9.3-20.7h1.7l9.3,20.7Zm-2.9-6.6L177.3,9.3l-5.6,12.6Z" style="fill:#231f20"/><path d="M191.8,7.8l13.9,17.1V7.8h1.6V28.5h-.6l-14-17.1V28.5h-1.6V7.8Z" style="fill:#231f20"/><path d="M10.4,54.6H4.2V61H0V39H10.4C21.2,39,21.2,54.6,10.4,54.6ZM4.2,50.8h6.2c5.3,0,5.3-7.8,0-7.8H4.2Z" style="fill:#19468d"/><path d="M34.8,44.3a6.3,6.3,0,0,0-5.2-2.5c-3.1,0-4.6,1.3-4.6,2.9s2.3,2.5,4.9,2.8c4.6.6,8.9,1.8,8.9,7s-4.3,7-9.3,7-8-1.4-9.6-5.4l3.5-1.8c1,2.4,3.5,3.5,6.2,3.5s5.1-.9,5.1-3.3-2.2-2.9-5.1-3.2c-4.5-.5-8.7-1.7-8.7-6.7s4.5-6.4,8.5-6.4,7,1,8.7,4.4Z" style="fill:#19468d"/><path d="M50.3,48.1,56.1,39h5v.2L52.4,52V61H48.2V52L39.7,39.2V39h4.9Z" style="fill:#19468d"/><path d="M81.7,58.3a11.6,11.6,0,0,1-8.4,3.3c-8.2,0-11.7-5.6-11.7-11.4s3.7-11.6,11.7-11.6a11.4,11.4,0,0,1,8.1,3.4l-2.8,2.7a7.6,7.6,0,0,0-5.3-2.1c-5.3,0-7.6,4-7.6,7.7s2.1,7.5,7.6,7.5a8.1,8.1,0,0,0,5.5-2.2Z" style="fill:#19468d"/><path d="M100,61.1V52.2H89.2v8.9H85V39h4.2v9.3H100V39h4.1v22Z" style="fill:#19468d"/><path d="M109,61V39h4.1V61Z" style="fill:#19468d"/><path d="M133.6,56.9H122.1L120.2,61h-4.5l9.9-22h4.5L140,61h-4.5Zm-5.8-13.3L123.8,53H132Z" style="fill:#19468d"/><path d="M144.9,42.8h-7V39h18.1v3.8h-7V61h-4.2Z" style="fill:#19468d"/><path d="M179.1,61h-4.9l-6.4-7.4h-4V61h-4.2V39h10.5c5.2,0,7.9,3.5,7.9,7.3s-1.4,6.1-5.6,6.9l6.7,7.5ZM163.7,42.9v7.1h6.3a3.5,3.5,0,1,0,0-7.1Z" style="fill:#19468d"/><path d="M181.8,61V39h4.1V61Z" style="fill:#19468d"/><path d="M210.2,58.3a11.6,11.6,0,0,1-8.4,3.3c-8.2,0-11.6-5.6-11.7-11.4s3.7-11.6,11.7-11.6a11.4,11.4,0,0,1,8.1,3.4l-2.8,2.7a7.6,7.6,0,0,0-5.3-2.1c-5.3,0-7.6,4-7.6,7.7s2.1,7.5,7.6,7.5a8.1,8.1,0,0,0,5.5-2.2Z" style="fill:#19468d"/><path d="M41.4,90.7,39.3,86H28.1l-2,4.6H24.5l8.4-18.8h1.6l8.4,18.8Zm-2.6-6-5-11.4-5,11.4Z" style="fill:#231f20"/><path d="M58,75.5c-1.4-2.2-3.6-2.5-5.7-2.5s-5.7.8-5.7,3.8,2.6,2.9,5.7,3.5,7.4,1.3,7.4,5.4-4.3,5.3-7.4,5.3-6.2-1.2-7.7-4.1l1.3-.6c1.2,2.3,4.1,3.4,6.4,3.4s6-.6,6-4-3.1-3.4-6.2-4-6.9-1.4-6.9-4.8,4-5.2,7.1-5.2,5,.4,6.9,3.2Z" style="fill:#231f20"/><path d="M75.8,75.5c-1.4-2.2-3.6-2.5-5.7-2.5s-5.7.8-5.7,3.8,2.6,2.9,5.7,3.5,7.4,1.3,7.4,5.4-4.3,5.3-7.4,5.3-6.2-1.2-7.7-4.1l1.3-.6c1.2,2.3,4.1,3.4,6.4,3.4s6-.6,6-4-3.1-3.4-6.2-4S63,80.3,63,76.8s4-5.2,7.1-5.2,5,.4,6.9,3.2Z" style="fill:#231f20"/><path d="M99.5,81.3c0,4.9-3.2,9.7-9.5,9.7s-9.5-4.8-9.5-9.7,3.1-9.7,9.5-9.7S99.5,76.2,99.5,81.3ZM82,81.3c0,4.2,2.7,8.4,8,8.4s8.1-4.1,8.1-8.4-2.7-8.3-8.1-8.3S82,76.8,82,81.3Z" style="fill:#231f20"/><path d="M119.2,88.1a9.7,9.7,0,0,1-6.8,2.8c-6.3,0-9.6-4.4-9.6-9.5s3.2-9.7,9.6-9.7a9.7,9.7,0,0,1,6.8,2.8l-1,.9a8.2,8.2,0,0,0-5.8-2.4c-5.5,0-8.3,3.9-8.3,8.4s2.8,8.2,8.3,8.2a8.4,8.4,0,0,0,5.9-2.4Z" style="fill:#231f20"/><path d="M123.5,90.7V71.9h1.4V90.7Z" style="fill:#231f20"/><path d="M144.7,90.7,142.7,86H131.5l-2,4.6h-1.6l8.4-18.8h1.6l8.4,18.8Zm-2.6-6-5-11.4-5,11.4Z" style="fill:#231f20"/><path d="M151.8,73.2H145V71.9h15v1.3h-6.8V90.7h-1.4Z" style="fill:#231f20"/><path d="M163.6,90.7V71.9H165V90.7Z" style="fill:#231f20"/><path d="M188.6,81.3c0,4.9-3.2,9.7-9.5,9.7s-9.5-4.8-9.5-9.7,3.1-9.7,9.5-9.7S188.6,76.2,188.6,81.3Zm-17.5,0c0,4.2,2.7,8.4,8,8.4s8.1-4.1,8.1-8.4-2.7-8.3-8.1-8.3S171.1,76.8,171.1,81.3Z" style="fill:#231f20"/><path d="M193.5,71.9l12.6,15.5V71.9h1.4V90.7H207L194.3,75.2V90.7h-1.4V71.9Z" style="fill:#231f20"/></svg>